<svg width="24" height="24" viewBox="0 0 24 24" fill="none" xmlns="http://www.w3.org/2000/svg">
  <path fill-rule="evenodd" clip-rule="evenodd" d="M12 21C12.5523 21 13 20.5523 13 20V6.415L17.2929 10.7071C17.6534 11.0676 18.2206 11.0953 18.6129 10.7903L18.7071 10.7071C19.0676 10.3466 19.0953 9.77939 18.7903 9.3871L18.7071 9.29289L12.7071 3.29289L12.6631 3.2515L12.5953 3.19633L12.4841 3.12467L12.3713 3.07123L12.266 3.03584L12.1175 3.00683L12 3L11.9248 3.00279L11.7993 3.02024L11.6879 3.04974L11.5768 3.09367L11.4793 3.146L11.3832 3.21279C11.3515 3.23767 11.3214 3.26443 11.2929 3.29289L5.29289 9.29289C4.90237 9.68342 4.90237 10.3166 5.29289 10.7071C5.65338 11.0676 6.22061 11.0953 6.6129 10.7903L6.70711 10.7071L11 6.415V20C11 20.5523 11.4477 21 12 21Z" fill="white"/>
  </svg>
  