<svg width="32" height="32" viewBox="0 0 32 32" fill="none" xmlns="http://www.w3.org/2000/svg">
  <path fill-rule="evenodd" clip-rule="evenodd" d="M2.41326 20.4258L3.18587 17.7162C3.18587 17.7162 1.51138 14.6253 2.17514 11.123C2.17514 11.123 2.88006 7.40353 5.86949 5.08087C5.86949 5.08087 8.85892 2.75821 12.6372 2.99441C12.6372 2.99441 16.4156 3.2306 19.0924 5.90749C19.0924 5.90749 21.7693 8.58438 22.0055 12.3627C22.0055 12.3627 22.2417 16.141 19.9191 19.1304C19.9191 19.1304 17.5964 22.1199 13.8769 22.8248C13.8769 22.8248 10.3746 23.4886 7.28371 21.8141L4.57414 22.5867C4.57414 22.5867 4.11362 22.7162 3.65439 22.5961C3.65439 22.5961 3.19514 22.4761 2.8595 22.1404C2.8595 22.1404 2.52385 21.8048 2.40381 21.3456C2.40381 21.3456 2.28378 20.8863 2.41225 20.4293L2.41326 20.4258ZM7.13821 19.7758L4.4606 20.5393L5.2241 17.8617C5.29949 17.5973 5.26269 17.3135 5.12235 17.0771C5.12235 17.0771 3.57606 14.4719 4.14017 11.4954C4.14017 11.4954 4.70428 8.51891 7.09657 6.6602C7.09657 6.6602 9.48886 4.80149 12.5125 4.99051C12.5125 4.99051 15.536 5.17953 17.6782 7.3217C17.6782 7.3217 19.8204 9.46389 20.0094 12.4875C20.0094 12.4875 20.1984 15.5111 18.3397 17.9034C18.3397 17.9034 16.481 20.2957 13.5045 20.8598C13.5045 20.8598 10.528 21.4239 7.92284 19.8776C7.68641 19.7372 7.40262 19.7004 7.13821 19.7758Z" fill="#9E9E9E"/>
  <path d="M25.3752 10.5595C23.1606 9.15141 20.5399 9.01383 20.5399 9.01383C20.5224 9.01291 20.5049 9.01245 20.4874 9.01245C20.4439 9.01245 20.4004 9.01529 20.3573 9.02096C19.8793 9.08371 19.5141 9.47858 19.4888 9.96003C19.4879 9.97749 19.4874 9.99497 19.4874 10.0125C19.4874 10.056 19.4903 10.0995 19.496 10.1426C19.5587 10.6206 19.9536 10.9858 20.435 11.0111C22.531 11.1211 24.3021 12.2473 24.3021 12.2473C26.0732 13.3734 27.0619 15.2247 27.0619 15.2247C28.0507 17.0761 28.0016 19.1743 28.0016 19.1743C27.9525 21.2726 26.8783 23.0756 26.8783 23.0756C26.7373 23.3123 26.7002 23.5967 26.7758 23.8617L27.5393 26.5393L24.8617 25.7758C24.6066 25.7031 24.3331 25.7346 24.1013 25.8636L24.0763 25.878L24.0746 25.879C22.5311 26.7964 20.7434 26.965 20.7434 26.965C18.9547 27.1337 17.266 26.5203 17.266 26.5203C15.5774 25.9068 14.3141 24.6293 14.3141 24.6293C13.0507 23.3519 12.4561 21.6565 12.4561 21.6565C12.3683 21.4062 12.1847 21.2011 11.9457 21.0862C11.8105 21.0212 11.6624 20.9874 11.5125 20.9874L11.4933 20.9876C11.387 20.9897 11.2818 21.0086 11.1815 21.0438C10.9312 21.1316 10.7261 21.3152 10.6112 21.5542C10.5462 21.6894 10.5125 21.8375 10.5125 21.9874L10.5126 22.0066C10.5147 22.1129 10.5336 22.2181 10.5688 22.3184C11.3123 24.4383 12.892 26.0356 12.892 26.0356C14.4717 27.633 16.5831 28.4001 16.5831 28.4001C18.6946 29.1671 20.9312 28.9562 20.9312 28.9562C22.9477 28.766 24.7156 27.8139 24.7156 27.8139L27.4293 28.5876C27.8863 28.7161 28.3455 28.5961 28.3455 28.5961C28.8047 28.476 29.1404 28.1404 29.1404 28.1404C29.476 27.8047 29.5961 27.3455 29.5961 27.3455C29.7161 26.8863 29.5866 26.4257 29.5866 26.4257L28.814 23.7163C29.9449 21.6234 30.0011 19.2211 30.0011 19.2211C30.0624 16.5974 28.8261 14.2825 28.8261 14.2825C27.5898 11.9677 25.3752 10.5595 25.3752 10.5595Z" fill="#9E9E9E"/>
  </svg>
  