<svg width="28" height="28" viewBox="0 0 28 28" fill="none" xmlns="http://www.w3.org/2000/svg">
  <path d="M14.0001 13.0685C16.4056 13.0685 18.3556 11.1224 18.3556 8.72177C18.3556 6.32112 16.4056 4.375 14.0001 4.375C11.5946 4.375 9.64451 6.32112 9.64451 8.72177C9.64451 11.1224 11.5946 13.0685 14.0001 13.0685Z" stroke="#AEB5BD" stroke-width="1.5"/>
  <path d="M4.66675 20.84C4.66675 18.2627 6.75554 16.1734 9.33286 16.1734C10.8929 16.1734 12.5917 16.1734 14.0001 16.1734C15.4085 16.1734 17.1072 16.1734 18.6673 16.1734C21.2446 16.1734 23.3334 18.2627 23.3334 20.84V21.2917C23.3334 22.5803 22.2887 23.625 21.0001 23.625H7.00008C5.71142 23.625 4.66675 22.5803 4.66675 21.2917V20.84Z" stroke="#AEB5BD" stroke-width="1.5"/>
  </svg>
  