<svg width="29" height="28" viewBox="0 0 29 28" fill="none" xmlns="http://www.w3.org/2000/svg">
  <path d="M14.1253 13.0685C16.5308 13.0685 18.4809 11.1224 18.4809 8.72177C18.4809 6.32112 16.5308 4.375 14.1253 4.375C11.7198 4.375 9.76976 6.32112 9.76976 8.72177C9.76976 11.1224 11.7198 13.0685 14.1253 13.0685Z" stroke="#E30611" stroke-width="1.5"/>
  <path d="M4.79199 20.84C4.79199 18.2627 6.88078 16.1734 9.45811 16.1734C11.0182 16.1734 12.7169 16.1734 14.1253 16.1734C15.5337 16.1734 17.2325 16.1734 18.7925 16.1734C21.3699 16.1734 23.4587 18.2627 23.4587 20.84V21.2917C23.4587 22.5803 22.414 23.625 21.1253 23.625H7.12533C5.83666 23.625 4.79199 22.5803 4.79199 21.2917V20.84Z" stroke="#E30611" stroke-width="1.5"/>
  </svg>
  