<svg width="49" height="49" viewBox="0 0 49 49" fill="none" xmlns="http://www.w3.org/2000/svg">
  <g clip-path="url(#clip0_139_13037)">
  <path fill-rule="evenodd" clip-rule="evenodd" d="M24.8934 47.7131C37.7137 47.7131 48.1065 37.3202 48.1065 24.5C48.1065 11.6797 37.7137 1.28687 24.8934 1.28687C12.0732 1.28687 1.6803 11.6797 1.6803 24.5C1.6803 37.3202 12.0732 47.7131 24.8934 47.7131ZM30.8637 21.6907L22.0818 16.6543C21.6066 16.3799 21.0673 16.2362 20.5186 16.2377C19.9698 16.2392 19.4313 16.3859 18.9576 16.6629C18.4839 16.9399 18.092 17.3374 17.8216 17.8149C17.5512 18.2924 17.412 18.8329 17.4182 19.3816V29.4907C17.4182 30.3153 17.7458 31.1061 18.3288 31.6892C18.9119 32.2722 19.7027 32.5998 20.5273 32.5998C21.0731 32.5989 21.6092 32.4547 22.0818 32.1816L30.8637 27.1452C31.3355 26.8721 31.7273 26.4798 31.9996 26.0075C32.272 25.5352 32.4154 24.9995 32.4154 24.4543C32.4154 23.9091 32.272 23.3735 31.9996 22.9012C31.7273 22.4289 31.3355 22.0365 30.8637 21.7634V21.6907Z" fill="#252525"/>
  </g>
  <defs>
  <clipPath id="clip0_139_13037">
  <rect width="48" height="48" fill="white" transform="translate(0.106567 0.5)"/>
  </clipPath>
  </defs>
  </svg>
  