<svg width="28" height="28" viewBox="0 0 28 28" fill="none" xmlns="http://www.w3.org/2000/svg">
  <path d="M14.4874 16.0496L15.0178 15.5193L14.4874 16.0496ZM14.4874 18.5245L15.0178 19.0548L14.4874 18.5245ZM12.0126 18.5245L11.4822 19.0548V19.0548L12.0126 18.5245ZM12.0126 16.0496L11.4822 15.5193H11.4822L12.0126 16.0496ZM17.0615 12.6064C17.4475 12.7565 17.8822 12.5653 18.0323 12.1792C18.1825 11.7932 17.9912 11.3585 17.6052 11.2084L17.0615 12.6064ZM15 11L15.2718 10.301C15.0411 10.2113 14.7809 10.2412 14.5765 10.381C14.3722 10.5208 14.25 10.7524 14.25 11H15ZM14.25 17.3518C14.25 17.7661 14.5858 18.1018 15 18.1018C15.4142 18.1018 15.75 17.7661 15.75 17.3518H14.25ZM21.25 6.91667V7.66667H22.75V6.91667H21.25ZM4.91667 6.91667V7.66667H6.41667V6.91667H4.91667ZM8 7.66667H19.6667V6.16667H8V7.66667ZM22.4167 10.4167V19.75H23.9167V10.4167H22.4167ZM19.6667 22.5H8V24H19.6667V22.5ZM5.25 19.75V10.4167H3.75V19.75H5.25ZM8 22.5C6.48122 22.5 5.25 21.2688 5.25 19.75H3.75C3.75 22.0972 5.65279 24 8 24V22.5ZM22.4167 19.75C22.4167 21.2688 21.1855 22.5 19.6667 22.5V24C22.0139 24 23.9167 22.0972 23.9167 19.75H22.4167ZM19.6667 7.66667C21.1855 7.66667 22.4167 8.89788 22.4167 10.4167H23.9167C23.9167 8.06946 22.0139 6.16667 19.6667 6.16667V7.66667ZM8 6.16667C5.65279 6.16667 3.75 8.06946 3.75 10.4167H5.25C5.25 8.89788 6.48122 7.66667 8 7.66667V6.16667ZM13.9571 16.5799C14.3476 16.9705 14.3476 17.6036 13.9571 17.9942L15.0178 19.0548C15.9941 18.0785 15.9941 16.4956 15.0178 15.5193L13.9571 16.5799ZM13.9571 17.9942C13.5666 18.3847 12.9334 18.3847 12.5429 17.9942L11.4822 19.0548C12.4585 20.0311 14.0415 20.0311 15.0178 19.0548L13.9571 17.9942ZM12.5429 17.9942C12.1524 17.6036 12.1524 16.9705 12.5429 16.5799L11.4822 15.5193C10.5059 16.4956 10.5059 18.0785 11.4822 19.0548L12.5429 17.9942ZM12.5429 16.5799C12.9334 16.1894 13.5666 16.1894 13.9571 16.5799L15.0178 15.5193C14.0415 14.543 12.4585 14.543 11.4822 15.5193L12.5429 16.5799ZM17.6052 11.2084L15.2718 10.301L14.7282 11.699L17.0615 12.6064L17.6052 11.2084ZM14.25 11V17.3518H15.75V11H14.25ZM8 4.75H19.6667V3.25H8V4.75ZM21.25 6.33333V6.91667H22.75V6.33333H21.25ZM6.41667 6.91667V6.33333H4.91667V6.91667H6.41667ZM19.6667 4.75C20.5411 4.75 21.25 5.45888 21.25 6.33333H22.75C22.75 4.63046 21.3695 3.25 19.6667 3.25V4.75ZM8 3.25C6.29712 3.25 4.91667 4.63046 4.91667 6.33333H6.41667C6.41667 5.45888 7.12555 4.75 8 4.75V3.25Z" fill="#AEB5BD"/>
  </svg>
  