<svg width="29" height="28" viewBox="0 0 29 28" fill="none" xmlns="http://www.w3.org/2000/svg">
  <path d="M14.8624 16.0496L15.3928 15.5193L14.8624 16.0496ZM14.8624 18.5245L15.3928 19.0548L14.8624 18.5245ZM12.3876 18.5245L11.8572 19.0548V19.0548L12.3876 18.5245ZM12.3876 16.0496L11.8572 15.5193H11.8572L12.3876 16.0496ZM17.4365 12.6064C17.8225 12.7565 18.2572 12.5653 18.4073 12.1792C18.5575 11.7932 18.3662 11.3585 17.9802 11.2084L17.4365 12.6064ZM15.375 11L15.6468 10.301C15.4161 10.2113 15.1559 10.2412 14.9515 10.381C14.7472 10.5208 14.625 10.7524 14.625 11H15.375ZM14.625 17.3518C14.625 17.7661 14.9608 18.1018 15.375 18.1018C15.7892 18.1018 16.125 17.7661 16.125 17.3518H14.625ZM21.625 6.91667V7.66667H23.125V6.91667H21.625ZM5.29167 6.91667V7.66667H6.79167V6.91667H5.29167ZM8.375 7.66667H20.0417V6.16667H8.375V7.66667ZM22.7917 10.4167V19.75H24.2917V10.4167H22.7917ZM20.0417 22.5H8.375V24H20.0417V22.5ZM5.625 19.75V10.4167H4.125V19.75H5.625ZM8.375 22.5C6.85622 22.5 5.625 21.2688 5.625 19.75H4.125C4.125 22.0972 6.02779 24 8.375 24V22.5ZM22.7917 19.75C22.7917 21.2688 21.5605 22.5 20.0417 22.5V24C22.3889 24 24.2917 22.0972 24.2917 19.75H22.7917ZM20.0417 7.66667C21.5605 7.66667 22.7917 8.89788 22.7917 10.4167H24.2917C24.2917 8.06946 22.3889 6.16667 20.0417 6.16667V7.66667ZM8.375 6.16667C6.02779 6.16667 4.125 8.06946 4.125 10.4167H5.625C5.625 8.89788 6.85622 7.66667 8.375 7.66667V6.16667ZM14.3321 16.5799C14.7226 16.9705 14.7226 17.6036 14.3321 17.9942L15.3928 19.0548C16.3691 18.0785 16.3691 16.4956 15.3928 15.5193L14.3321 16.5799ZM14.3321 17.9942C13.9416 18.3847 13.3084 18.3847 12.9179 17.9942L11.8572 19.0548C12.8335 20.0311 14.4165 20.0311 15.3928 19.0548L14.3321 17.9942ZM12.9179 17.9942C12.5274 17.6036 12.5274 16.9705 12.9179 16.5799L11.8572 15.5193C10.8809 16.4956 10.8809 18.0785 11.8572 19.0548L12.9179 17.9942ZM12.9179 16.5799C13.3084 16.1894 13.9416 16.1894 14.3321 16.5799L15.3928 15.5193C14.4165 14.543 12.8335 14.543 11.8572 15.5193L12.9179 16.5799ZM17.9802 11.2084L15.6468 10.301L15.1032 11.699L17.4365 12.6064L17.9802 11.2084ZM14.625 11V17.3518H16.125V11H14.625ZM8.375 4.75H20.0417V3.25H8.375V4.75ZM21.625 6.33333V6.91667H23.125V6.33333H21.625ZM6.79167 6.91667V6.33333H5.29167V6.91667H6.79167ZM20.0417 4.75C20.9161 4.75 21.625 5.45888 21.625 6.33333H23.125C23.125 4.63046 21.7445 3.25 20.0417 3.25V4.75ZM8.375 3.25C6.67212 3.25 5.29167 4.63046 5.29167 6.33333H6.79167C6.79167 5.45888 7.50055 4.75 8.375 4.75V3.25Z" fill="#E30611"/>
  </svg>
  